<?xml version="1.0" encoding="UTF-8" standalone="no"?>
<!-- Created with Inkscape (http://www.inkscape.org/) -->

<svg
   width="297mm"
   height="210mm"
   viewBox="0 0 297 210"
   version="1.1"
   id="svg5"
   inkscape:version="1.1.2 (b8e25be833, 2022-02-05)"
   sodipodi:docname="logo_grupo.svg"
   xmlns:inkscape="http://www.inkscape.org/namespaces/inkscape"
   xmlns:sodipodi="http://sodipodi.sourceforge.net/DTD/sodipodi-0.dtd"
   xmlns:xlink="http://www.w3.org/1999/xlink"
   xmlns="http://www.w3.org/2000/svg"
   xmlns:svg="http://www.w3.org/2000/svg">
  <sodipodi:namedview
     id="namedview7"
     pagecolor="#ffffff"
     bordercolor="#666666"
     borderopacity="1.0"
     inkscape:pageshadow="2"
     inkscape:pageopacity="0.0"
     inkscape:pagecheckerboard="0"
     inkscape:document-units="mm"
     showgrid="false"
     showguides="false"
     inkscape:zoom="0.70710678"
     inkscape:cx="730.4413"
     inkscape:cy="159.80613"
     inkscape:window-width="1920"
     inkscape:window-height="1009"
     inkscape:window-x="-8"
     inkscape:window-y="-8"
     inkscape:window-maximized="1"
     inkscape:current-layer="g29219"
     inkscape:lockguides="false"
     inkscape:showpageshadow="2"
     inkscape:deskcolor="#d1d1d1" />
  <defs
     id="defs2">
    <linearGradient
       inkscape:collect="always"
       id="linearGradient49008">
      <stop
         style="stop-color:#5b5b5b;stop-opacity:1;"
         offset="0"
         id="stop49004" />
      <stop
         style="stop-color:#5b5b5b;stop-opacity:0;"
         offset="1"
         id="stop49006" />
    </linearGradient>
    <linearGradient
       inkscape:collect="always"
       id="linearGradient15714">
      <stop
         style="stop-color:#5b5b5b;stop-opacity:1;"
         offset="0"
         id="stop15710" />
      <stop
         style="stop-color:#5b5b5b;stop-opacity:0;"
         offset="1"
         id="stop15712" />
    </linearGradient>
    <rect
       x="199.13472"
       y="163.67237"
       width="212.77408"
       height="80.47225"
       id="rect3290" />
    <linearGradient
       inkscape:collect="always"
       xlink:href="#linearGradient15714"
       id="linearGradient15716"
       x1="118.47345"
       y1="-39.844124"
       x2="118.47345"
       y2="-95.001472"
       gradientUnits="userSpaceOnUse" />
    <linearGradient
       inkscape:collect="always"
       xlink:href="#linearGradient15714"
       id="linearGradient20010"
       gradientUnits="userSpaceOnUse"
       x1="118.47345"
       y1="-39.844124"
       x2="118.47345"
       y2="-95.001472" />
    <linearGradient
       inkscape:collect="always"
       xlink:href="#linearGradient15714"
       id="linearGradient20012"
       gradientUnits="userSpaceOnUse"
       x1="118.47345"
       y1="-39.844124"
       x2="118.47345"
       y2="-95.001472" />
    <linearGradient
       inkscape:collect="always"
       xlink:href="#linearGradient15714"
       id="linearGradient20014"
       gradientUnits="userSpaceOnUse"
       x1="118.47345"
       y1="-39.844124"
       x2="118.47345"
       y2="-95.001472" />
    <linearGradient
       inkscape:collect="always"
       xlink:href="#linearGradient15714"
       id="linearGradient29239"
       gradientUnits="userSpaceOnUse"
       x1="118.47345"
       y1="-39.844124"
       x2="118.47345"
       y2="-95.001472" />
    <linearGradient
       inkscape:collect="always"
       xlink:href="#linearGradient15714"
       id="linearGradient29241"
       gradientUnits="userSpaceOnUse"
       x1="118.47345"
       y1="-39.844124"
       x2="118.47345"
       y2="-95.001472" />
    <linearGradient
       inkscape:collect="always"
       xlink:href="#linearGradient15714"
       id="linearGradient29243"
       gradientUnits="userSpaceOnUse"
       x1="118.47345"
       y1="-39.844124"
       x2="118.47345"
       y2="-95.001472" />
    <linearGradient
       inkscape:collect="always"
       xlink:href="#linearGradient15714"
       id="linearGradient29245"
       gradientUnits="userSpaceOnUse"
       x1="118.47345"
       y1="-39.844124"
       x2="118.47345"
       y2="-95.001472" />
    <linearGradient
       inkscape:collect="always"
       xlink:href="#linearGradient15714"
       id="linearGradient32473"
       gradientUnits="userSpaceOnUse"
       x1="118.47345"
       y1="-39.844124"
       x2="118.47345"
       y2="-95.001472" />
    <linearGradient
       inkscape:collect="always"
       xlink:href="#linearGradient15714"
       id="linearGradient32475"
       gradientUnits="userSpaceOnUse"
       x1="118.47345"
       y1="-39.844124"
       x2="118.47345"
       y2="-95.001472" />
    <linearGradient
       inkscape:collect="always"
       xlink:href="#linearGradient15714"
       id="linearGradient32477"
       gradientUnits="userSpaceOnUse"
       x1="118.47345"
       y1="-39.844124"
       x2="118.47345"
       y2="-95.001472" />
    <linearGradient
       inkscape:collect="always"
       xlink:href="#linearGradient49008"
       id="linearGradient32479"
       gradientUnits="userSpaceOnUse"
       x1="118.47345"
       y1="-39.844124"
       x2="118.47345"
       y2="-95.001472" />
    <linearGradient
       inkscape:collect="always"
       xlink:href="#linearGradient15714"
       id="linearGradient941"
       gradientUnits="userSpaceOnUse"
       x1="118.47345"
       y1="-39.844124"
       x2="118.47345"
       y2="-95.001472" />
    <linearGradient
       inkscape:collect="always"
       xlink:href="#linearGradient15714"
       id="linearGradient943"
       gradientUnits="userSpaceOnUse"
       x1="118.47345"
       y1="-39.844124"
       x2="118.47345"
       y2="-95.001472" />
    <linearGradient
       inkscape:collect="always"
       xlink:href="#linearGradient15714"
       id="linearGradient945"
       gradientUnits="userSpaceOnUse"
       x1="118.47345"
       y1="-39.844124"
       x2="118.47345"
       y2="-95.001472" />
    <linearGradient
       inkscape:collect="always"
       xlink:href="#linearGradient15714"
       id="linearGradient947"
       gradientUnits="userSpaceOnUse"
       x1="118.47345"
       y1="-39.844124"
       x2="118.47345"
       y2="-95.001472" />
    <linearGradient
       inkscape:collect="always"
       xlink:href="#linearGradient15714"
       id="linearGradient14074"
       gradientUnits="userSpaceOnUse"
       x1="118.47345"
       y1="-39.844124"
       x2="118.47345"
       y2="-95.001472" />
    <linearGradient
       inkscape:collect="always"
       xlink:href="#linearGradient15714"
       id="linearGradient14076"
       gradientUnits="userSpaceOnUse"
       x1="118.47345"
       y1="-39.844124"
       x2="118.47345"
       y2="-95.001472" />
    <linearGradient
       inkscape:collect="always"
       xlink:href="#linearGradient15714"
       id="linearGradient14078"
       gradientUnits="userSpaceOnUse"
       x1="118.47345"
       y1="-39.844124"
       x2="118.47345"
       y2="-95.001472" />
    <linearGradient
       inkscape:collect="always"
       xlink:href="#linearGradient15714"
       id="linearGradient14080"
       gradientUnits="userSpaceOnUse"
       x1="118.47345"
       y1="-39.844124"
       x2="118.47345"
       y2="-95.001472" />
    <linearGradient
       inkscape:collect="always"
       xlink:href="#linearGradient15714"
       id="linearGradient46558"
       gradientUnits="userSpaceOnUse"
       x1="118.47345"
       y1="-39.844124"
       x2="118.47345"
       y2="-95.001472"
       gradientTransform="translate(0.31443393,-0.43254627)" />
    <linearGradient
       inkscape:collect="always"
       xlink:href="#linearGradient15714"
       id="linearGradient46560"
       gradientUnits="userSpaceOnUse"
       x1="118.47345"
       y1="-39.844124"
       x2="118.47345"
       y2="-95.001472"
       gradientTransform="translate(0.31443393,-0.43254627)" />
    <linearGradient
       inkscape:collect="always"
       xlink:href="#linearGradient15714"
       id="linearGradient46562"
       gradientUnits="userSpaceOnUse"
       x1="118.47345"
       y1="-39.844124"
       x2="118.47345"
       y2="-95.001472"
       gradientTransform="translate(0.31443393,-0.43254627)" />
    <linearGradient
       inkscape:collect="always"
       xlink:href="#linearGradient49008"
       id="linearGradient46564"
       gradientUnits="userSpaceOnUse"
       x1="118.47345"
       y1="-39.844124"
       x2="118.47345"
       y2="-95.001472" />
  </defs>
  <g
     inkscape:label="Camada 1"
     inkscape:groupmode="layer"
     id="layer1">
    <g
       id="g29219"
       inkscape:label="D_normal_normal"
       transform="translate(0.54131227,4.2524513)"
       style="display:inline">
      <g
         aria-label="DJW"
         transform="matrix(0.82603906,0,0,-0.23031191,-48.813262,35.601199)"
         id="text8876-6"
         style="font-size:36.9501px;line-height:1.25;fill:url(#linearGradient15716);fill-opacity:1;stroke-width:0.923755"
         inkscape:export-filename="C:\Users\fatec_aluno\Desktop\Projeto_PI\logo_grupo\logo_grupo_wh.png"
         inkscape:export-xdpi="213.21587"
         inkscape:export-ydpi="213.21587">
        <path
           d="m 77.836499,-95.723783 h 9.490113 q 3.716661,0 5.593033,0.36084 4.636804,0.88406 7.487445,4.94352 2.23721,3.193441 2.23721,7.036396 0,3.915123 -2.30938,7.126606 -2.778471,3.879039 -7.252897,4.817225 -1.15469,0.234546 -2.056792,0.288672 -0.902103,0.05413 -3.969249,0.05413 h -9.165357 l 0.05413,-11.907747 z m 11.023687,1.15469 -0.09021,14.505801 0.108253,7.812204 q 2.417633,-0.01804 3.464072,-0.18042 1.06448,-0.180421 2.435675,-0.775808 3.229525,-1.389237 5.069814,-4.474426 1.60574,-2.65218 1.60574,-5.737369 0,-3.35582 -1.894413,-6.170378 -3.373862,-4.997646 -9.995291,-4.997646 z"
           style="font-family:Broadway;-inkscape-font-specification:'Broadway, Normal';fill:url(#linearGradient20010);fill-opacity:1"
           id="path15155" />
        <path
           d="m 124.25867,-95.723783 -0.0541,4.275963 0.0902,6.567303 0.0541,4.366174 q 0,4.492468 -2.56197,7.126606 -1.49749,1.551616 -3.71666,2.29134 -2.21917,0.739723 -5.3224,0.739723 -4.54659,0 -7.00031,-1.822246 -1.08252,-0.811892 -1.80421,-2.002666 -0.72168,-1.208817 -0.72168,-2.219171 0,-0.775808 0.75777,-0.775808 0.72168,0 0.88406,1.100564 0.32475,2.309382 2.88672,3.572324 2.0568,1.010355 4.4203,1.010355 0.3428,0 1.11861,-0.05413 l 0.018,-0.739724 0.0361,-4.925477 0.0722,-13.152648 -0.1263,-5.358486 z"
           style="font-family:Broadway;-inkscape-font-specification:'Broadway, Normal';fill:url(#linearGradient20012);fill-opacity:1"
           id="path15157" />
        <path
           d="m 157.58232,-82.769598 q 2.92281,-6.98227 4.79918,-12.052083 0.30672,-0.829934 0.48714,-1.028397 0.18042,-0.216504 0.61343,-0.216504 0.36084,0 0.61343,0.18042 0.27063,0.180421 0.27063,0.433009 0,0.234547 -1.40728,3.427988 l -1.04644,2.345465 -8.96689,20.315339 -4.45639,-8.38955 -3.50015,-6.242546 -2.76044,5.051772 -4.20379,7.884372 -0.86602,1.695952 -3.48211,-8.588012 -3.06715,-7.451363 q -2.2733,-5.611075 -4.38422,-10.085501 l -0.10825,-0.234546 h 11.29432 l 1.55161,3.969249 q 2.38155,5.953873 3.77079,8.93081 l 3.33778,-6.134294 1.22686,-2.309381 0.82993,-1.551616 1.38924,-2.598054 q 0.32475,-0.631471 0.61343,-1.136648 l 2.67022,5.21415 q 2.30938,4.4203 4.78114,8.569969 z"
           style="font-family:Broadway;-inkscape-font-specification:'Broadway, Normal';fill:url(#linearGradient20014);fill-opacity:1"
           id="path15159" />
      </g>
      <g
         aria-label="DJW"
         transform="scale(0.82395379,1.2136603)"
         id="text8876"
         style="font-size:36.9501px;line-height:1.25;stroke-width:0.923755"
         inkscape:export-filename="C:\Users\fatec_aluno\Desktop\Projeto_PI\logo_grupo\logo_grupo_wh.png"
         inkscape:export-xdpi="213.21587"
         inkscape:export-ydpi="213.21587">
        <path
           d="m 18.790907,18.198057 h 9.490114 q 3.71666,0 5.593032,0.360841 4.636805,0.88406 7.487448,4.943519 2.237213,3.193442 2.237213,7.036396 0,3.915123 -2.309382,7.126607 -2.778474,3.879038 -7.2529,4.817224 -1.154691,0.234547 -2.056793,0.288673 -0.902102,0.05413 -3.969249,0.05413 H 18.845033 L 18.899163,30.9177 Z m 11.023687,1.154691 -0.09021,14.505801 0.108252,7.812204 q 2.417634,-0.01804 3.464072,-0.180421 1.064481,-0.18042 2.435676,-0.775808 3.229525,-1.389237 5.069813,-4.474426 1.605742,-2.65218 1.605742,-5.737369 0,-3.355819 -1.894414,-6.170378 -3.373862,-4.997645 -9.995291,-4.997645 z"
           style="font-family:Broadway;-inkscape-font-specification:'Broadway, Normal';fill:#ee0a0a;fill-opacity:1"
           id="path32927" />
        <path
           d="m 65.21308,18.198057 -0.05413,4.275964 0.09021,6.567303 0.05413,4.366174 q 0,4.492468 -2.56197,7.126606 -1.49749,1.551616 -3.716661,2.291339 -2.219171,0.739724 -5.322402,0.739724 -4.546594,0 -7.000312,-1.822246 -1.082522,-0.811892 -1.804204,-2.002667 -0.721681,-1.208816 -0.721681,-2.219171 0,-0.775808 0.757765,-0.775808 0.721682,0 0.88406,1.100565 0.324757,2.309381 2.886727,3.572324 2.056793,1.010354 4.4203,1.010354 0.342799,0 1.118607,-0.05413 l 0.01804,-0.739723 0.03608,-4.925478 0.07217,-13.152648 -0.126294,-5.358486 z"
           style="font-family:Broadway;-inkscape-font-specification:'Broadway, Normal';fill:#000000;fill-opacity:1"
           id="path32929" />
        <path
           d="m 98.536729,31.152243 q 2.922811,-6.98227 4.799181,-12.052084 0.30672,-0.829934 0.48714,-1.028396 0.18042,-0.216504 0.61343,-0.216504 0.36084,0 0.61343,0.18042 0.27063,0.18042 0.27063,0.433009 0,0.234546 -1.40728,3.427988 l -1.04644,2.345465 -8.966896,20.315338 -4.456384,-8.389549 -3.500156,-6.242546 -2.760432,5.051771 -4.203796,7.884372 -0.866018,1.695952 -3.482114,-8.588011 -3.067147,-7.451363 Q 69.29058,22.90703 67.179661,18.432604 l -0.108252,-0.234547 h 11.294318 l 1.551615,3.969249 q 2.38155,5.953874 3.770787,8.930811 l 3.337777,-6.134294 1.226859,-2.309382 0.829934,-1.551615 1.389237,-2.598054 q 0.324757,-0.631471 0.61343,-1.136649 l 2.670222,5.21415 q 2.309381,4.4203 4.781141,8.56997 z"
           style="font-family:Broadway;-inkscape-font-specification:'Broadway, Normal'"
           id="path32931" />
      </g>
      <path
         id="path27954"
         style="fill:#ec0a0a;fill-opacity:1;stroke-width:1.14082"
         d="m 53.477553,14.662809 a 4.6385245,4.5218811 0 0 1 -4.638526,4.521881 4.6385245,4.5218811 0 0 1 -4.638525,-4.521881 4.6385245,4.5218811 0 0 1 4.638525,-4.521881 4.6385245,4.5218811 0 0 1 4.638526,4.521881 z"
         inkscape:export-filename="C:\Users\fatec_aluno\Desktop\Projeto_PI\logo_grupo\logo_grupo_wh.png"
         inkscape:export-xdpi="213.21587"
         inkscape:export-ydpi="213.21587" />
      <path
         style="display:none;fill:#000000;fill-opacity:1;stroke:none;stroke-width:0.264583px;stroke-linecap:butt;stroke-linejoin:miter;stroke-opacity:1"
         d="m 44.490316,13.132914 8.277307,-0.861224 c 0,0 0.65389,0.877173 0.73363,2.248749 -1.64674,1.103681 -4.294322,-0.416133 -3.668166,-0.318971 0.0016,0.0044 -1.635642,2.722348 -3.508685,0.446559 -1.196612,-1.453909 -2.121159,0.143536 -2.121159,0.143536 0,0 -0.01595,-0.956913 0.287073,-1.658649 z"
         id="path25034"
         sodipodi:nodetypes="ccccscc"
         inkscape:export-filename="C:\Users\fatec_aluno\Desktop\Projeto_PI\logo_grupo\logo_grupo_wh.png"
         inkscape:export-xdpi="213.21587"
         inkscape:export-ydpi="213.21587" />
    </g>
    <g
       id="g46556"
       inkscape:label="D_normal_negativo"
       transform="translate(90.540361,3.9044005)">
      <rect
         style="fill:#000000;fill-opacity:1;fill-rule:nonzero;stroke:none;stroke-width:1.0658;stroke-opacity:1"
         id="rect46534"
         width="83.809494"
         height="53.602348"
         x="9.0076895"
         y="7.2512388" />
      <g
         aria-label="DJW"
         transform="matrix(0.82603906,0,0,-0.23031191,-49.072997,35.501578)"
         id="g46542"
         style="font-size:36.9501px;line-height:1.25;fill:url(#linearGradient46564);fill-opacity:1;stroke-width:0.923755"
         inkscape:export-filename="C:\Users\fatec_aluno\Desktop\Projeto_PI\logo_grupo\logo_grupo_bl.png"
         inkscape:export-xdpi="213.21587"
         inkscape:export-ydpi="213.21587">
        <path
           d="m 78.150933,-96.156329 h 9.490113 q 3.716661,0 5.593033,0.36084 4.636804,0.88406 7.487441,4.94352 2.23721,3.193441 2.23721,7.036396 0,3.915123 -2.30938,7.126606 -2.778467,3.879039 -7.252893,4.817225 -1.15469,0.234546 -2.056792,0.288672 -0.902103,0.05413 -3.969249,0.05413 h -9.165357 l 0.05413,-11.907747 z m 11.023687,1.15469 -0.09021,14.505801 0.108253,7.812204 q 2.417633,-0.01804 3.464072,-0.18042 1.06448,-0.180421 2.435675,-0.775808 3.229525,-1.389237 5.06981,-4.474426 1.60574,-2.65218 1.60574,-5.737369 0,-3.35582 -1.894409,-6.170378 -3.373862,-4.997646 -9.995291,-4.997646 z"
           style="font-family:Broadway;-inkscape-font-specification:'Broadway, Normal';fill:url(#linearGradient46558);fill-opacity:1"
           id="path46536" />
        <path
           d="m 124.5731,-96.156329 -0.0541,4.275963 0.0902,6.567303 0.0541,4.366174 q 0,4.492468 -2.56197,7.126606 -1.49749,1.551616 -3.71666,2.29134 -2.21917,0.739723 -5.3224,0.739723 -4.54659,0 -7.00031,-1.822246 -1.08252,-0.811892 -1.80421,-2.002666 -0.72168,-1.208817 -0.72168,-2.219171 0,-0.775808 0.75777,-0.775808 0.72168,0 0.88406,1.100564 0.32475,2.309382 2.88672,3.572324 2.0568,1.010355 4.4203,1.010355 0.3428,0 1.11861,-0.05413 l 0.018,-0.739724 0.0361,-4.925477 0.0722,-13.152648 -0.1263,-5.358486 z"
           style="font-family:Broadway;-inkscape-font-specification:'Broadway, Normal';fill:url(#linearGradient46560);fill-opacity:1"
           id="path46538" />
        <path
           d="m 157.89675,-83.202144 q 2.92281,-6.98227 4.79918,-12.052083 0.30672,-0.829934 0.48714,-1.028397 0.18042,-0.216504 0.61343,-0.216504 0.36084,0 0.61343,0.18042 0.27063,0.180421 0.27063,0.433009 0,0.234547 -1.40728,3.427988 l -1.04644,2.345465 -8.96689,20.315339 -4.45639,-8.38955 -3.50015,-6.242546 -2.76044,5.051772 -4.20379,7.884372 -0.86602,1.695952 -3.48211,-8.588012 -3.06715,-7.451363 q -2.2733,-5.611075 -4.38422,-10.085501 l -0.10825,-0.234546 h 11.29432 l 1.55161,3.969249 q 2.38155,5.953873 3.77079,8.93081 l 3.33778,-6.134294 1.22686,-2.309381 0.82993,-1.551616 1.38924,-2.598054 q 0.32475,-0.631471 0.61343,-1.136648 l 2.67022,5.21415 q 2.30938,4.4203 4.78114,8.569969 z"
           style="font-family:Broadway;-inkscape-font-specification:'Broadway, Normal';fill:url(#linearGradient46562);fill-opacity:1"
           id="path46540" />
      </g>
      <g
         aria-label="DJW"
         transform="scale(0.82395379,1.2136603)"
         id="g46550"
         style="font-size:36.9501px;line-height:1.25;stroke-width:0.923755"
         inkscape:export-filename="C:\Users\fatec_aluno\Desktop\Projeto_PI\logo_grupo\logo_grupo_bl.png"
         inkscape:export-xdpi="213.21587"
         inkscape:export-ydpi="213.21587">
        <path
           d="m 18.790907,18.198057 h 9.490114 q 3.71666,0 5.593032,0.360841 4.636805,0.88406 7.487448,4.943519 2.237213,3.193442 2.237213,7.036396 0,3.915123 -2.309382,7.126607 -2.778474,3.879038 -7.2529,4.817224 -1.154691,0.234547 -2.056793,0.288673 -0.902102,0.05413 -3.969249,0.05413 H 18.845033 L 18.899163,30.9177 Z m 11.023687,1.154691 -0.09021,14.505801 0.108252,7.812204 q 2.417634,-0.01804 3.464072,-0.180421 1.064481,-0.18042 2.435676,-0.775808 3.229525,-1.389237 5.069813,-4.474426 1.605742,-2.65218 1.605742,-5.737369 0,-3.355819 -1.894414,-6.170378 -3.373862,-4.997645 -9.995291,-4.997645 z"
           style="font-family:Broadway;-inkscape-font-specification:'Broadway, Normal';fill:#ee0a0a;fill-opacity:1"
           id="path46544" />
        <path
           d="m 65.21308,18.198057 -0.05413,4.275964 0.09021,6.567303 0.05413,4.366174 q 0,4.492468 -2.56197,7.126606 -1.49749,1.551616 -3.716661,2.291339 -2.219171,0.739724 -5.322402,0.739724 -4.546594,0 -7.000312,-1.822246 -1.082522,-0.811892 -1.804204,-2.002667 -0.721681,-1.208816 -0.721681,-2.219171 0,-0.775808 0.757765,-0.775808 0.721682,0 0.88406,1.100565 0.324757,2.309381 2.886727,3.572324 2.056793,1.010354 4.4203,1.010354 0.342799,0 1.118607,-0.05413 l 0.01804,-0.739723 0.03608,-4.925478 0.07217,-13.152648 -0.126294,-5.358486 z"
           style="font-family:Broadway;-inkscape-font-specification:'Broadway, Normal';fill:#ffffff;fill-opacity:1"
           id="path46546" />
        <path
           d="m 98.536729,31.152243 q 2.922811,-6.98227 4.799181,-12.052084 0.30672,-0.829934 0.48714,-1.028396 0.18042,-0.216504 0.61343,-0.216504 0.36084,0 0.61343,0.18042 0.27063,0.18042 0.27063,0.433009 0,0.234546 -1.40728,3.427988 l -1.04644,2.345465 -8.966896,20.315338 -4.456384,-8.389549 -3.500156,-6.242546 -2.760432,5.051771 -4.203796,7.884372 -0.866018,1.695952 -3.482114,-8.588011 -3.067147,-7.451363 Q 69.29058,22.90703 67.179661,18.432604 l -0.108252,-0.234547 h 11.294318 l 1.551615,3.969249 q 2.38155,5.953874 3.770787,8.930811 l 3.337777,-6.134294 1.226859,-2.309382 0.829934,-1.551615 1.389237,-2.598054 q 0.324757,-0.631471 0.61343,-1.136649 l 2.670222,5.21415 q 2.309381,4.4203 4.781141,8.56997 z"
           style="font-family:Broadway;-inkscape-font-specification:'Broadway, Normal';fill:#ffffff;fill-opacity:1"
           id="path46548" />
      </g>
      <path
         id="path46552"
         style="fill:#ee0a0a;fill-opacity:1;stroke-width:1.14082"
         d="m 53.477553,14.662809 a 4.6385245,4.5218811 0 0 1 -4.638526,4.521881 4.6385245,4.5218811 0 0 1 -4.638525,-4.521881 4.6385245,4.5218811 0 0 1 4.638525,-4.521881 4.6385245,4.5218811 0 0 1 4.638526,4.521881 z"
         inkscape:export-filename="C:\Users\fatec_aluno\Desktop\Projeto_PI\logo_grupo\logo_grupo_bl.png"
         inkscape:export-xdpi="213.21587"
         inkscape:export-ydpi="213.21587" />
      <path
         style="display:none;fill:#ffffff;fill-opacity:1;stroke:none;stroke-width:0.264583px;stroke-linecap:butt;stroke-linejoin:miter;stroke-opacity:1"
         d="m 44.490316,13.132914 8.277307,-0.861224 c 0,0 0.65389,0.877173 0.73363,2.248749 -1.64674,1.103681 -4.294322,-0.416133 -3.668166,-0.318971 0.0016,0.0044 -1.635642,2.722348 -3.508685,0.446559 -1.196612,-1.453909 -2.121159,0.143536 -2.121159,0.143536 0,0 -0.01595,-0.956913 0.287073,-1.658649 z"
         id="path46554"
         sodipodi:nodetypes="ccccscc"
         inkscape:export-filename="C:\Users\fatec_aluno\Desktop\Projeto_PI\logo_grupo\logo_grupo_bl.png"
         inkscape:export-xdpi="213.21587"
         inkscape:export-ydpi="213.21587" />
    </g>
    <g
       id="g32471"
       inkscape:label="D_normal_vermelho"
       transform="translate(180.61786,2.6285152)">
      <rect
         style="fill:#ee0a0a;fill-opacity:1;fill-rule:nonzero;stroke:none;stroke-width:1.0658;stroke-opacity:1"
         id="rect32503"
         width="83.809494"
         height="53.602348"
         x="9.0076895"
         y="7.2512388" />
      <g
         aria-label="DJW"
         transform="matrix(0.82603906,0,0,-0.23031191,-48.813262,35.601199)"
         id="g32461"
         style="font-size:36.9501px;line-height:1.25;fill:url(#linearGradient32479);fill-opacity:1;stroke-width:0.923755"
         inkscape:export-filename="C:\Users\fatec_aluno\Desktop\Projeto_PI\logo_grupo\logo_grupo_red.png"
         inkscape:export-xdpi="213.21582"
         inkscape:export-ydpi="213.21582">
        <path
           d="m 77.836499,-95.723783 h 9.490113 q 3.716661,0 5.593033,0.36084 4.636804,0.88406 7.487445,4.94352 2.23721,3.193441 2.23721,7.036396 0,3.915123 -2.30938,7.126606 -2.778471,3.879039 -7.252897,4.817225 -1.15469,0.234546 -2.056792,0.288672 -0.902103,0.05413 -3.969249,0.05413 h -9.165357 l 0.05413,-11.907747 z m 11.023687,1.15469 -0.09021,14.505801 0.108253,7.812204 q 2.417633,-0.01804 3.464072,-0.18042 1.06448,-0.180421 2.435675,-0.775808 3.229525,-1.389237 5.069814,-4.474426 1.60574,-2.65218 1.60574,-5.737369 0,-3.35582 -1.894413,-6.170378 -3.373862,-4.997646 -9.995291,-4.997646 z"
           style="font-family:Broadway;-inkscape-font-specification:'Broadway, Normal';fill:url(#linearGradient32473);fill-opacity:1"
           id="path32455" />
        <path
           d="m 124.25867,-95.723783 -0.0541,4.275963 0.0902,6.567303 0.0541,4.366174 q 0,4.492468 -2.56197,7.126606 -1.49749,1.551616 -3.71666,2.29134 -2.21917,0.739723 -5.3224,0.739723 -4.54659,0 -7.00031,-1.822246 -1.08252,-0.811892 -1.80421,-2.002666 -0.72168,-1.208817 -0.72168,-2.219171 0,-0.775808 0.75777,-0.775808 0.72168,0 0.88406,1.100564 0.32475,2.309382 2.88672,3.572324 2.0568,1.010355 4.4203,1.010355 0.3428,0 1.11861,-0.05413 l 0.018,-0.739724 0.0361,-4.925477 0.0722,-13.152648 -0.1263,-5.358486 z"
           style="font-family:Broadway;-inkscape-font-specification:'Broadway, Normal';fill:url(#linearGradient32475);fill-opacity:1"
           id="path32457" />
        <path
           d="m 157.58232,-82.769598 q 2.92281,-6.98227 4.79918,-12.052083 0.30672,-0.829934 0.48714,-1.028397 0.18042,-0.216504 0.61343,-0.216504 0.36084,0 0.61343,0.18042 0.27063,0.180421 0.27063,0.433009 0,0.234547 -1.40728,3.427988 l -1.04644,2.345465 -8.96689,20.315339 -4.45639,-8.38955 -3.50015,-6.242546 -2.76044,5.051772 -4.20379,7.884372 -0.86602,1.695952 -3.48211,-8.588012 -3.06715,-7.451363 q -2.2733,-5.611075 -4.38422,-10.085501 l -0.10825,-0.234546 h 11.29432 l 1.55161,3.969249 q 2.38155,5.953873 3.77079,8.93081 l 3.33778,-6.134294 1.22686,-2.309381 0.82993,-1.551616 1.38924,-2.598054 q 0.32475,-0.631471 0.61343,-1.136648 l 2.67022,5.21415 q 2.30938,4.4203 4.78114,8.569969 z"
           style="font-family:Broadway;-inkscape-font-specification:'Broadway, Normal';fill:url(#linearGradient32477);fill-opacity:1"
           id="path32459" />
      </g>
      <g
         aria-label="DJW"
         transform="scale(0.82395379,1.2136603)"
         id="text32465"
         style="font-size:36.9501px;line-height:1.25;stroke-width:0.923755"
         inkscape:export-filename="C:\Users\fatec_aluno\Desktop\Projeto_PI\logo_grupo\logo_grupo_red.png"
         inkscape:export-xdpi="213.21582"
         inkscape:export-ydpi="213.21582">
        <path
           d="m 18.790907,18.198057 h 9.490114 q 3.71666,0 5.593032,0.360841 4.636805,0.88406 7.487448,4.943519 2.237213,3.193442 2.237213,7.036396 0,3.915123 -2.309382,7.126607 -2.778474,3.879038 -7.2529,4.817224 -1.154691,0.234547 -2.056793,0.288673 -0.902102,0.05413 -3.969249,0.05413 H 18.845033 L 18.899163,30.9177 Z m 11.023687,1.154691 -0.09021,14.505801 0.108252,7.812204 q 2.417634,-0.01804 3.464072,-0.180421 1.064481,-0.18042 2.435676,-0.775808 3.229525,-1.389237 5.069813,-4.474426 1.605742,-2.65218 1.605742,-5.737369 0,-3.355819 -1.894414,-6.170378 -3.373862,-4.997645 -9.995291,-4.997645 z"
           style="font-family:Broadway;-inkscape-font-specification:'Broadway, Normal';fill:#ffffff;fill-opacity:1"
           id="path34813" />
        <path
           d="m 65.21308,18.198057 -0.05413,4.275964 0.09021,6.567303 0.05413,4.366174 q 0,4.492468 -2.56197,7.126606 -1.49749,1.551616 -3.716661,2.291339 -2.219171,0.739724 -5.322402,0.739724 -4.546594,0 -7.000312,-1.822246 -1.082522,-0.811892 -1.804204,-2.002667 -0.721681,-1.208816 -0.721681,-2.219171 0,-0.775808 0.757765,-0.775808 0.721682,0 0.88406,1.100565 0.324757,2.309381 2.886727,3.572324 2.056793,1.010354 4.4203,1.010354 0.342799,0 1.118607,-0.05413 l 0.01804,-0.739723 0.03608,-4.925478 0.07217,-13.152648 -0.126294,-5.358486 z"
           style="font-family:Broadway;-inkscape-font-specification:'Broadway, Normal';fill:#000000;fill-opacity:1"
           id="path34815" />
        <path
           d="m 98.536729,31.152243 q 2.922811,-6.98227 4.799181,-12.052084 0.30672,-0.829934 0.48714,-1.028396 0.18042,-0.216504 0.61343,-0.216504 0.36084,0 0.61343,0.18042 0.27063,0.18042 0.27063,0.433009 0,0.234546 -1.40728,3.427988 l -1.04644,2.345465 -8.966896,20.315338 -4.456384,-8.389549 -3.500156,-6.242546 -2.760432,5.051771 -4.203796,7.884372 -0.866018,1.695952 -3.482114,-8.588011 -3.067147,-7.451363 Q 69.29058,22.90703 67.179661,18.432604 l -0.108252,-0.234547 h 11.294318 l 1.551615,3.969249 q 2.38155,5.953874 3.770787,8.930811 l 3.337777,-6.134294 1.226859,-2.309382 0.829934,-1.551615 1.389237,-2.598054 q 0.324757,-0.631471 0.61343,-1.136649 l 2.670222,5.21415 q 2.309381,4.4203 4.781141,8.56997 z"
           style="font-family:Broadway;-inkscape-font-specification:'Broadway, Normal'"
           id="path34817" />
      </g>
      <path
         id="path32467"
         style="fill:#ffffff;fill-opacity:1;stroke-width:1.14082"
         d="m 53.477553,14.662809 a 4.6385245,4.5218811 0 0 1 -4.638526,4.521881 4.6385245,4.5218811 0 0 1 -4.638525,-4.521881 4.6385245,4.5218811 0 0 1 4.638525,-4.521881 4.6385245,4.5218811 0 0 1 4.638526,4.521881 z"
         inkscape:export-filename="C:\Users\fatec_aluno\Desktop\Projeto_PI\logo_grupo\logo_grupo_red.png"
         inkscape:export-xdpi="213.21582"
         inkscape:export-ydpi="213.21582" />
      <path
         style="display:none;fill:#000000;fill-opacity:1;stroke:none;stroke-width:0.264583px;stroke-linecap:butt;stroke-linejoin:miter;stroke-opacity:1"
         d="m 44.490316,13.132914 8.277307,-0.861224 c 0,0 0.65389,0.877173 0.73363,2.248749 -1.64674,1.103681 -4.294322,-0.416133 -3.668166,-0.318971 0.0016,0.0044 -1.635642,2.722348 -3.508685,0.446559 -1.196612,-1.453909 -2.121159,0.143536 -2.121159,0.143536 0,0 -0.01595,-0.956913 0.287073,-1.658649 z"
         id="path32469"
         sodipodi:nodetypes="ccccscc"
         inkscape:export-filename="C:\Users\fatec_aluno\Desktop\Projeto_PI\logo_grupo\logo_grupo_red.png"
         inkscape:export-xdpi="213.21582"
         inkscape:export-ydpi="213.21582" />
    </g>
    <g
       id="g939"
       transform="translate(-1.9848122,65.962046)"
       inkscape:label="D_grande_normal"
       style="display:none">
      <g
         aria-label="DJW"
         transform="matrix(0.82603906,0,0,-0.23031191,-46.956329,36.030745)"
         id="g925"
         style="font-size:36.9501px;line-height:1.25;display:none;fill:url(#linearGradient947);fill-opacity:1;fill-rule:nonzero;stroke-width:0.923755">
        <path
           d="m 77.836499,-95.723783 h 21.021045 c 2.477776,0 50.465846,0.12028 51.716756,0.36084 3.09121,0.589373 5.58702,2.237213 7.48745,4.94352 1.49147,2.128961 2.23721,4.474426 2.23721,7.036396 0,2.610082 -0.76979,4.985617 -2.30938,7.126606 -1.85232,2.586026 -4.26995,4.191768 -7.2529,4.817225 -0.76979,0.156364 -1.45539,0.252588 -2.05679,0.288672 -0.6014,0.03609 -48.04821,0.05413 -50.092976,0.05413 H 77.890625 l 0.05413,-11.907747 z m 22.554621,1.15469 -0.0902,14.505801 0.10825,7.812204 c 1.61176,-0.01203 48.89017,-0.07217 49.5878,-0.18042 0.70965,-0.120281 1.52154,-0.378883 2.43567,-0.775808 2.15302,-0.926158 3.84296,-2.417633 5.06982,-4.474426 1.07049,-1.76812 1.60574,-3.680576 1.60574,-5.737369 0,-2.237213 -0.63147,-4.294006 -1.89441,-6.170378 -2.24925,-3.331764 -5.58101,-4.997646 -9.9953,-4.997646 z"
           style="font-family:Broadway;-inkscape-font-specification:'Broadway, Normal';display:inline;fill:url(#linearGradient941);fill-opacity:1;fill-rule:nonzero"
           id="path919"
           sodipodi:nodetypes="csccsccsscccccccccsccc" />
        <path
           d="m 124.25867,-95.723783 -0.0541,4.275963 0.0902,6.567303 0.0541,4.366174 q 0,4.492468 -2.56197,7.126606 -1.49749,1.551616 -3.71666,2.29134 -2.21917,0.739723 -5.3224,0.739723 -4.54659,0 -7.00031,-1.822246 -1.08252,-0.811892 -1.80421,-2.002666 -0.72168,-1.208817 -0.72168,-2.219171 0,-0.775808 0.75777,-0.775808 0.72168,0 0.88406,1.100564 0.32475,2.309382 2.88672,3.572324 2.0568,1.010355 4.4203,1.010355 0.3428,0 1.11861,-0.05413 l 0.018,-0.739724 0.0361,-4.925477 0.0722,-13.152648 -0.1263,-5.358486 z"
           style="font-family:Broadway;-inkscape-font-specification:'Broadway, Normal';fill:url(#linearGradient943);fill-opacity:1;fill-rule:nonzero"
           id="path921" />
        <path
           d="m 157.58232,-82.769598 q 2.92281,-6.98227 4.79918,-12.052083 0.30672,-0.829934 0.48714,-1.028397 0.18042,-0.216504 0.61343,-0.216504 0.36084,0 0.61343,0.18042 0.27063,0.180421 0.27063,0.433009 0,0.234547 -1.40728,3.427988 l -1.04644,2.345465 -8.96689,20.315339 -4.45639,-8.38955 -3.50015,-6.242546 -2.76044,5.051772 -4.20379,7.884372 -0.86602,1.695952 -3.48211,-8.588012 -3.06715,-7.451363 q -2.2733,-5.611075 -4.38422,-10.085501 l -0.10825,-0.234546 h 11.29432 l 1.55161,3.969249 q 2.38155,5.953873 3.77079,8.93081 l 3.33778,-6.134294 1.22686,-2.309381 0.82993,-1.551616 1.38924,-2.598054 q 0.32475,-0.631471 0.61343,-1.136648 l 2.67022,5.21415 q 2.30938,4.4203 4.78114,8.569969 z"
           style="font-family:Broadway;-inkscape-font-specification:'Broadway, Normal';fill:url(#linearGradient945);fill-opacity:1;fill-rule:nonzero"
           id="path923" />
      </g>
      <g
         aria-label="DJW"
         transform="scale(0.82395379,1.2136603)"
         id="g933"
         style="font-size:36.9501px;line-height:1.25;fill:#ffffff;stroke-width:0.923755">
        <path
           d="m 67.781997,18.634066 -0.05413,4.275963 0.09021,6.567303 0.05413,4.366174 c 0,2.994979 -0.85399,5.370515 -2.56197,7.126607 -0.998326,1.03441 -2.237213,1.79819 -3.71666,2.291339 -1.479447,0.493149 -3.253581,0.739723 -5.322402,0.739723 -3.031063,0 -5.364501,-0.607415 -7.000312,-1.822246 -0.721682,-0.541261 -1.323083,-1.208817 -1.804204,-2.002666 -0.481121,-0.805878 -0.721682,-1.545602 -0.721682,-2.219171 0,-0.517205 0.252589,-0.775808 0.757766,-0.775808 0.481121,0 0.775807,0.366855 0.88406,1.100564 0.216504,1.539588 1.178746,2.730363 2.886726,3.572325 1.371195,0.673569 2.844629,1.010354 4.4203,1.010354 0.228533,0 0.601402,-0.01804 1.118607,-0.05413 l 0.01804,-0.739724 0.03608,-4.925477 0.07217,-13.152648 -0.126294,-5.358486 z"
           style="font-family:Broadway;-inkscape-font-specification:'Broadway, Normal';fill:#000000;fill-opacity:1"
           id="path927"
           sodipodi:nodetypes="cccccssccssccscccccc" />
        <path
           d="M 20.624516,9.0303731 H 53.26609 c 8.522391,0 14.934866,0.1671842 19.23743,0.5015541 10.6323,0.8192048 19.216747,3.1096378 25.753329,6.8712938 5.129981,2.959171 7.694981,6.219272 7.694981,9.780308 0,3.627908 -2.64774,6.929808 -7.943205,9.905696 -6.371101,3.594473 -14.686637,5.826389 -24.946599,6.695749 -2.64773,0.217341 -5.005867,0.351089 -7.074408,0.401244 -2.068542,0.05016 -6.619334,0.07523 -13.652373,0.07523 H 20.810684 l 0.186187,-16.551291 z m 23.0167,1.6049719 -0.31028,20.162481 0.37234,10.858652 c 5.543689,-0.01673 24.414941,-0.100307 26.814451,-0.250777 2.440876,-0.167186 5.233406,-0.526633 8.377589,-1.078341 7.405375,-1.287323 13.217976,-3.360415 17.437797,-6.219273 3.682007,-2.457617 5.523007,-5.115854 5.523007,-7.974714 0,-3.109636 -2.171964,-5.968496 -6.515903,-8.576577 -7.736344,-4.631019 -19.196061,-6.946528 -34.379151,-6.946528 z"
           style="font-family:Broadway;-inkscape-font-specification:'Broadway, Normal';fill:#ee0a0a;fill-opacity:1;stroke-width:2.01979"
           id="path929"
           sodipodi:nodetypes="csccsccsscccccccccsccc" />
        <path
           d="m 101.10564,31.588251 q 2.92282,-6.98227 4.79919,-12.052083 0.30671,-0.829934 0.48713,-1.028397 0.18042,-0.216504 0.61343,-0.216504 0.36084,0 0.61343,0.18042 0.27063,0.180421 0.27063,0.433009 0,0.234547 -1.40728,3.427988 l -1.04644,2.345466 -8.96689,20.315338 -4.456384,-8.389549 -3.500156,-6.242547 -2.760432,5.051772 -4.203796,7.884372 -0.866017,1.695952 -3.482114,-8.588012 -3.067147,-7.451363 Q 71.859496,23.343038 69.748578,18.868612 l -0.108253,-0.234546 h 11.294318 l 1.551616,3.969249 q 2.381549,5.953873 3.770786,8.93081 l 3.337778,-6.134294 1.226859,-2.309381 0.829933,-1.551616 1.389238,-2.598054 q 0.324756,-0.631471 0.613429,-1.136648 l 2.670222,5.21415 q 2.309381,4.4203 4.781136,8.569969 z"
           style="font-family:Broadway;-inkscape-font-specification:'Broadway, Normal';fill:#000000;fill-opacity:1"
           id="path931" />
        <path
           style="fill:#ee0a0a;fill-opacity:1;stroke:none;stroke-width:0.264583px;stroke-linecap:butt;stroke-linejoin:miter;stroke-opacity:1"
           d="m 78.713125,40.363742 c 0,0 2.916231,-0.546349 4.943023,-1.018001 2.100437,-0.488789 0.21693,1.863572 0.21693,1.863572 0,0 -3.695453,0.771237 -5.570552,0.975662 -1.875099,0.204423 0.410605,-1.821233 0.410605,-1.821233 z"
           id="path94087"
           sodipodi:nodetypes="cscscc" />
      </g>
      <path
         id="path935"
         style="fill:#000000;fill-opacity:1;stroke-width:1.14082"
         d="m 55.594221,15.191976 a 4.6385245,4.5218811 0 0 1 -4.638526,4.521881 4.6385245,4.5218811 0 0 1 -4.638525,-4.521881 4.6385245,4.5218811 0 0 1 4.638525,-4.521881 4.6385245,4.5218811 0 0 1 4.638526,4.521881 z" />
      <path
         style="fill:#ee0a0a;fill-opacity:1;stroke:none;stroke-width:0.264583px;stroke-linecap:butt;stroke-linejoin:miter;stroke-opacity:1"
         d="m 46.606984,13.662081 8.277307,-0.861224 c 0,0 0.65389,0.877173 0.73363,2.248749 -1.64674,1.103681 -4.294322,-0.416133 -3.668166,-0.318971 0.0016,0.0044 -1.635642,2.722348 -3.508685,0.446559 -1.196612,-1.453909 -2.121159,0.143536 -2.121159,0.143536 0,0 -0.01595,-0.956913 0.287073,-1.658649 z"
         id="path937"
         sodipodi:nodetypes="ccccscc" />
    </g>
    <g
       id="g29237"
       transform="translate(90.038276,63.255485)"
       inkscape:label="D_grande_negativo"
       style="display:none">
      <rect
         style="fill:#000000;fill-opacity:1;stroke:none;stroke-width:1;stroke-opacity:1"
         id="rect29271"
         width="80.835968"
         height="51.785542"
         x="11.499412"
         y="8.2879725" />
      <g
         aria-label="DJW"
         transform="matrix(0.82603906,0,0,-0.23031191,-46.956329,36.030745)"
         id="g29227"
         style="font-size:36.9501px;line-height:1.25;display:none;fill:url(#linearGradient29245);fill-opacity:1;fill-rule:nonzero;stroke-width:0.923755">
        <path
           d="m 77.836499,-95.723783 h 9.490113 q 3.716661,0 5.593033,0.36084 4.636804,0.88406 7.487445,4.94352 2.23721,3.193441 2.23721,7.036396 0,3.915123 -2.30938,7.126606 -2.778471,3.879039 -7.252897,4.817225 -1.15469,0.234546 -2.056792,0.288672 -0.902103,0.05413 -3.969249,0.05413 h -9.165357 l 0.05413,-11.907747 z m 11.023687,1.15469 -0.09021,14.505801 0.108253,7.812204 q 2.417633,-0.01804 3.464072,-0.18042 1.06448,-0.180421 2.435675,-0.775808 3.229525,-1.389237 5.069814,-4.474426 1.60574,-2.65218 1.60574,-5.737369 0,-3.35582 -1.894413,-6.170378 -3.373862,-4.997646 -9.995291,-4.997646 z"
           style="font-family:Broadway;-inkscape-font-specification:'Broadway, Normal';display:inline;fill:url(#linearGradient29239);fill-opacity:1;fill-rule:nonzero"
           id="path29221" />
        <path
           d="m 124.25867,-95.723783 -0.0541,4.275963 0.0902,6.567303 0.0541,4.366174 q 0,4.492468 -2.56197,7.126606 -1.49749,1.551616 -3.71666,2.29134 -2.21917,0.739723 -5.3224,0.739723 -4.54659,0 -7.00031,-1.822246 -1.08252,-0.811892 -1.80421,-2.002666 -0.72168,-1.208817 -0.72168,-2.219171 0,-0.775808 0.75777,-0.775808 0.72168,0 0.88406,1.100564 0.32475,2.309382 2.88672,3.572324 2.0568,1.010355 4.4203,1.010355 0.3428,0 1.11861,-0.05413 l 0.018,-0.739724 0.0361,-4.925477 0.0722,-13.152648 -0.1263,-5.358486 z"
           style="font-family:Broadway;-inkscape-font-specification:'Broadway, Normal';fill:url(#linearGradient29241);fill-opacity:1;fill-rule:nonzero"
           id="path29223" />
        <path
           d="m 157.58232,-82.769598 q 2.92281,-6.98227 4.79918,-12.052083 0.30672,-0.829934 0.48714,-1.028397 0.18042,-0.216504 0.61343,-0.216504 0.36084,0 0.61343,0.18042 0.27063,0.180421 0.27063,0.433009 0,0.234547 -1.40728,3.427988 l -1.04644,2.345465 -8.96689,20.315339 -4.45639,-8.38955 -3.50015,-6.242546 -2.76044,5.051772 -4.20379,7.884372 -0.86602,1.695952 -3.48211,-8.588012 -3.06715,-7.451363 q -2.2733,-5.611075 -4.38422,-10.085501 l -0.10825,-0.234546 h 11.29432 l 1.55161,3.969249 q 2.38155,5.953873 3.77079,8.93081 l 3.33778,-6.134294 1.22686,-2.309381 0.82993,-1.551616 1.38924,-2.598054 q 0.32475,-0.631471 0.61343,-1.136648 l 2.67022,5.21415 q 2.30938,4.4203 4.78114,8.569969 z"
           style="font-family:Broadway;-inkscape-font-specification:'Broadway, Normal';fill:url(#linearGradient29243);fill-opacity:1;fill-rule:nonzero"
           id="path29225" />
      </g>
      <g
         aria-label="DJW"
         transform="scale(0.82395379,1.2136603)"
         id="text29231"
         style="font-size:36.9501px;line-height:1.25;fill:#ffffff;stroke-width:0.923755">
        <path
           d="m 67.781997,18.634066 -0.05413,4.275963 0.09021,6.567303 0.05413,4.366174 c 0,2.994979 -0.85399,5.370515 -2.56197,7.126607 -0.998326,1.03441 -2.237213,1.79819 -3.71666,2.291339 -1.479447,0.493149 -3.253581,0.739723 -5.322402,0.739723 -3.031063,0 -5.364501,-0.607415 -7.000312,-1.822246 -0.721682,-0.541261 -1.323083,-1.208817 -1.804204,-2.002666 -0.481121,-0.805878 -0.721682,-1.545602 -0.721682,-2.219171 0,-0.517205 0.252589,-0.775808 0.757766,-0.775808 0.481121,0 0.775807,0.366855 0.88406,1.100564 0.216504,1.539588 1.178746,2.730363 2.886726,3.572325 1.371195,0.673569 2.844629,1.010354 4.4203,1.010354 0.228533,0 0.601402,-0.01804 1.118607,-0.05413 l 0.01804,-0.739724 0.03608,-4.925477 0.07217,-13.152648 -0.126294,-5.358486 z"
           style="font-family:Broadway;-inkscape-font-specification:'Broadway, Normal';fill:#ffffff;fill-opacity:1"
           id="path34052"
           sodipodi:nodetypes="cccccssccssccscccccc" />
        <path
           d="M 20.624516,9.0303731 H 53.26609 c 8.522391,0 14.934866,0.1671842 19.23743,0.5015541 10.6323,0.8192048 19.216747,3.1096378 25.753329,6.8712938 5.129981,2.959171 7.694981,6.219272 7.694981,9.780308 0,3.627908 -2.64774,6.929808 -7.943205,9.905696 -6.371101,3.594473 -14.686637,5.826389 -24.946599,6.695749 -2.64773,0.217341 -5.005867,0.351089 -7.074408,0.401244 -2.068542,0.05016 -6.619334,0.07523 -13.652373,0.07523 H 20.810684 l 0.186187,-16.551291 z m 23.0167,1.6049719 -0.31028,20.162481 0.37234,10.858652 c 5.543689,-0.01673 24.414941,-0.100307 26.814451,-0.250777 2.440876,-0.167186 5.233406,-0.526633 8.377589,-1.078341 7.405375,-1.287323 13.217976,-3.360415 17.437797,-6.219273 3.682007,-2.457617 5.523007,-5.115854 5.523007,-7.974714 0,-3.109636 -2.171964,-5.968496 -6.515903,-8.576577 -7.736344,-4.631019 -19.196061,-6.946528 -34.379151,-6.946528 z"
           style="font-family:Broadway;-inkscape-font-specification:'Broadway, Normal';fill:#ee0a0a;fill-opacity:1;stroke-width:2.01979"
           id="path34050"
           sodipodi:nodetypes="csccsccsscccccccccsccc" />
        <path
           d="m 101.10564,31.588251 q 2.92282,-6.98227 4.79919,-12.052083 0.30671,-0.829934 0.48713,-1.028397 0.18042,-0.216504 0.61343,-0.216504 0.36084,0 0.61343,0.18042 0.27063,0.180421 0.27063,0.433009 0,0.234547 -1.40728,3.427988 l -1.04644,2.345466 -8.96689,20.315338 -4.456384,-8.389549 -3.500156,-6.242547 -2.760432,5.051772 -4.203796,7.884372 -0.866017,1.695952 -3.482114,-8.588012 -3.067147,-7.451363 Q 71.859496,23.343038 69.748578,18.868612 l -0.108253,-0.234546 h 11.294318 l 1.551616,3.969249 q 2.381549,5.953873 3.770786,8.93081 l 3.337778,-6.134294 1.226859,-2.309381 0.829933,-1.551616 1.389238,-2.598054 q 0.324756,-0.631471 0.613429,-1.136648 l 2.670222,5.21415 q 2.309381,4.4203 4.781136,8.569969 z"
           style="font-family:Broadway;-inkscape-font-specification:'Broadway, Normal';fill:#ffffff;fill-opacity:1"
           id="path34054" />
        <path
           style="fill:#ee0a0a;fill-opacity:1;stroke:none;stroke-width:0.264583px;stroke-linecap:butt;stroke-linejoin:miter;stroke-opacity:1"
           d="m 78.775783,40.348015 c 0,0 2.03143,-0.29091 5.34365,-1.127191 3.31222,-0.83628 -1.610845,2.275104 -1.610845,2.275104 0,0 -1.985405,0.391055 -3.379048,0.575027 -1.393642,0.183972 -0.200649,-1.792237 -0.353757,-1.72294 z"
           id="path97569"
           sodipodi:nodetypes="cscsc" />
      </g>
      <path
         id="path29233"
         style="fill:#fff9f9;fill-opacity:1;stroke-width:1.14082"
         d="m 55.594221,15.191976 a 4.6385245,4.5218811 0 0 1 -4.638526,4.521881 4.6385245,4.5218811 0 0 1 -4.638525,-4.521881 4.6385245,4.5218811 0 0 1 4.638525,-4.521881 4.6385245,4.5218811 0 0 1 4.638526,4.521881 z" />
      <path
         style="fill:#ee0a0a;fill-opacity:1;stroke:none;stroke-width:0.264583px;stroke-linecap:butt;stroke-linejoin:miter;stroke-opacity:1"
         d="m 46.606984,13.662081 8.277307,-0.861224 c 0,0 0.65389,0.877173 0.73363,2.248749 -1.64674,1.103681 -4.294322,-0.416133 -3.668166,-0.318971 0.0016,0.0044 -1.635642,2.722348 -3.508685,0.446559 -1.196612,-1.453909 -2.121159,0.143536 -2.121159,0.143536 0,0 -0.01595,-0.956913 0.287073,-1.658649 z"
         id="path29235"
         sodipodi:nodetypes="ccccscc" />
    </g>
    <g
       id="g14072"
       transform="translate(177.9113,91.120899)"
       inkscape:label="D_grande_vermelho"
       style="display:none">
      <rect
         style="fill:#ee0a0a;fill-opacity:1;stroke:none;stroke-width:1;stroke-opacity:1"
         id="rect14050"
         width="80.835968"
         height="51.785542"
         x="11.499412"
         y="-19.757858" />
      <g
         aria-label="DJW"
         transform="matrix(0.82603906,0,0,-0.23031191,-46.956329,36.030745)"
         id="g14058"
         style="font-size:36.9501px;line-height:1.25;display:none;fill:url(#linearGradient14080);fill-opacity:1;fill-rule:nonzero;stroke-width:0.923755">
        <path
           d="m 77.836499,-95.723783 h 9.490113 q 3.716661,0 5.593033,0.36084 4.636804,0.88406 7.487445,4.94352 2.23721,3.193441 2.23721,7.036396 0,3.915123 -2.30938,7.126606 -2.778471,3.879039 -7.252897,4.817225 -1.15469,0.234546 -2.056792,0.288672 -0.902103,0.05413 -3.969249,0.05413 h -9.165357 l 0.05413,-11.907747 z m 11.023687,1.15469 -0.09021,14.505801 0.108253,7.812204 q 2.417633,-0.01804 3.464072,-0.18042 1.06448,-0.180421 2.435675,-0.775808 3.229525,-1.389237 5.069814,-4.474426 1.60574,-2.65218 1.60574,-5.737369 0,-3.35582 -1.894413,-6.170378 -3.373862,-4.997646 -9.995291,-4.997646 z"
           style="font-family:Broadway;-inkscape-font-specification:'Broadway, Normal';display:inline;fill:url(#linearGradient14074);fill-opacity:1;fill-rule:nonzero"
           id="path14052" />
        <path
           d="m 124.25867,-95.723783 -0.0541,4.275963 0.0902,6.567303 0.0541,4.366174 q 0,4.492468 -2.56197,7.126606 -1.49749,1.551616 -3.71666,2.29134 -2.21917,0.739723 -5.3224,0.739723 -4.54659,0 -7.00031,-1.822246 -1.08252,-0.811892 -1.80421,-2.002666 -0.72168,-1.208817 -0.72168,-2.219171 0,-0.775808 0.75777,-0.775808 0.72168,0 0.88406,1.100564 0.32475,2.309382 2.88672,3.572324 2.0568,1.010355 4.4203,1.010355 0.3428,0 1.11861,-0.05413 l 0.018,-0.739724 0.0361,-4.925477 0.0722,-13.152648 -0.1263,-5.358486 z"
           style="font-family:Broadway;-inkscape-font-specification:'Broadway, Normal';fill:url(#linearGradient14076);fill-opacity:1;fill-rule:nonzero"
           id="path14054" />
        <path
           d="m 157.58232,-82.769598 q 2.92281,-6.98227 4.79918,-12.052083 0.30672,-0.829934 0.48714,-1.028397 0.18042,-0.216504 0.61343,-0.216504 0.36084,0 0.61343,0.18042 0.27063,0.180421 0.27063,0.433009 0,0.234547 -1.40728,3.427988 l -1.04644,2.345465 -8.96689,20.315339 -4.45639,-8.38955 -3.50015,-6.242546 -2.76044,5.051772 -4.20379,7.884372 -0.86602,1.695952 -3.48211,-8.588012 -3.06715,-7.451363 q -2.2733,-5.611075 -4.38422,-10.085501 l -0.10825,-0.234546 h 11.29432 l 1.55161,3.969249 q 2.38155,5.953873 3.77079,8.93081 l 3.33778,-6.134294 1.22686,-2.309381 0.82993,-1.551616 1.38924,-2.598054 q 0.32475,-0.631471 0.61343,-1.136648 l 2.67022,5.21415 q 2.30938,4.4203 4.78114,8.569969 z"
           style="font-family:Broadway;-inkscape-font-specification:'Broadway, Normal';fill:url(#linearGradient14078);fill-opacity:1;fill-rule:nonzero"
           id="path14056" />
      </g>
      <g
         aria-label="DJW"
         transform="matrix(0.82395379,0,0,1.2136603,0,-28.045845)"
         id="g14066"
         style="font-size:36.9501px;line-height:1.25;fill:#ffffff;stroke-width:0.923755">
        <path
           d="m 67.781997,18.634066 -0.05413,4.275963 0.09021,6.567303 0.05413,4.366174 c 0,2.994979 -0.85399,5.370515 -2.56197,7.126607 -0.998326,1.03441 -2.237213,1.79819 -3.71666,2.291339 -1.479447,0.493149 -3.253581,0.739723 -5.322402,0.739723 -3.031063,0 -5.364501,-0.607415 -7.000312,-1.822246 -0.721682,-0.541261 -1.323083,-1.208817 -1.804204,-2.002666 -0.481121,-0.805878 -0.721682,-1.545602 -0.721682,-2.219171 0,-0.517205 0.252589,-0.775808 0.757766,-0.775808 0.481121,0 0.775807,0.366855 0.88406,1.100564 0.216504,1.539588 1.178746,2.730363 2.886726,3.572325 1.371195,0.673569 2.844629,1.010354 4.4203,1.010354 0.228533,0 0.601402,-0.01804 1.118607,-0.05413 l 0.01804,-0.739724 0.03608,-4.925477 0.07217,-13.152648 -0.126294,-5.358486 z"
           style="font-family:Broadway;-inkscape-font-specification:'Broadway, Normal';fill:#000000;fill-opacity:1"
           id="path14060"
           sodipodi:nodetypes="cccccssccssccscccccc" />
        <path
           d="M 20.624516,9.0303731 H 53.26609 c 8.522391,0 14.934866,0.1671842 19.23743,0.5015541 10.6323,0.8192048 19.216747,3.1096378 25.753329,6.8712938 5.129981,2.959171 7.694981,6.219272 7.694981,9.780308 0,3.627908 -2.64774,6.929808 -7.943205,9.905696 -6.371101,3.594473 -14.686637,5.826389 -24.946599,6.695749 -2.64773,0.217341 -5.005867,0.351089 -7.074408,0.401244 -2.068542,0.05016 -6.619334,0.07523 -13.652373,0.07523 H 20.810684 l 0.186187,-16.551291 z m 23.0167,1.6049719 -0.31028,20.162481 0.37234,10.858652 c 5.543689,-0.01673 24.414941,-0.100307 26.814451,-0.250777 2.440876,-0.167186 5.233406,-0.526633 8.377589,-1.078341 7.405375,-1.287323 13.217976,-3.360415 17.437797,-6.219273 3.682007,-2.457617 5.523007,-5.115854 5.523007,-7.974714 0,-3.109636 -2.171964,-5.968496 -6.515903,-8.576577 -7.736344,-4.631019 -19.196061,-6.946528 -34.379151,-6.946528 z"
           style="font-family:Broadway;-inkscape-font-specification:'Broadway, Normal';fill:#ffffff;fill-opacity:1;stroke-width:2.01979"
           id="path14062"
           sodipodi:nodetypes="csccsccsscccccccccsccc" />
        <path
           d="m 101.10564,31.588251 q 2.92282,-6.98227 4.79919,-12.052083 0.30671,-0.829934 0.48713,-1.028397 0.18042,-0.216504 0.61343,-0.216504 0.36084,0 0.61343,0.18042 0.27063,0.180421 0.27063,0.433009 0,0.234547 -1.40728,3.427988 l -1.04644,2.345466 -8.96689,20.315338 -4.456384,-8.389549 -3.500156,-6.242547 -2.760432,5.051772 -4.203796,7.884372 -0.866017,1.695952 -3.482114,-8.588012 -3.067147,-7.451363 Q 71.859496,23.343038 69.748578,18.868612 l -0.108253,-0.234546 h 11.294318 l 1.551616,3.969249 q 2.381549,5.953873 3.770786,8.93081 l 3.337778,-6.134294 1.226859,-2.309381 0.829933,-1.551616 1.389238,-2.598054 q 0.324756,-0.631471 0.613429,-1.136648 l 2.670222,5.21415 q 2.309381,4.4203 4.781136,8.569969 z"
           style="font-family:Broadway;-inkscape-font-specification:'Broadway, Normal';fill:#000000;fill-opacity:1"
           id="path14064" />
      </g>
      <path
         id="path14068"
         style="fill:#000000;fill-opacity:1;stroke-width:1.14082"
         d="m 55.594221,-12.853863 a 4.6385245,4.5218811 0 0 1 -4.638526,4.5218797 4.6385245,4.5218811 0 0 1 -4.638525,-4.5218797 4.6385245,4.5218811 0 0 1 4.638525,-4.521881 4.6385245,4.5218811 0 0 1 4.638526,4.521881 z" />
      <path
         style="fill:#ffffff;fill-opacity:1;stroke:none;stroke-width:0.264583px;stroke-linecap:butt;stroke-linejoin:miter;stroke-opacity:1"
         d="m 46.606984,-14.383758 8.277307,-0.861224 c 0,0 0.65389,0.877173 0.73363,2.248749 -1.64674,1.103681 -4.294322,-0.416133 -3.668166,-0.318971 0.0016,0.0044 -1.635642,2.722348 -3.508685,0.446559 -1.196612,-1.453909 -2.121159,0.143536 -2.121159,0.143536 0,0 -0.01595,-0.956913 0.287073,-1.658649 z"
         id="path14070"
         sodipodi:nodetypes="ccccscc" />
      <path
         style="fill:#ffffff;fill-opacity:1;stroke:none;stroke-width:0.264583px;stroke-linecap:butt;stroke-linejoin:miter;stroke-opacity:1"
         d="m 242.83583,112.0407 c 0,0 3.03545,-0.82216 4.00491,-1.22027 1.83355,-0.75295 -0.90744,2.60313 -0.90744,2.60313 0,0 -1.84795,0.5302 -2.61689,0.67076 -0.76895,0.14056 -0.48058,-2.05362 -0.48058,-2.05362 z"
         id="path99338"
         sodipodi:nodetypes="cscsc"
         transform="translate(-177.9113,-91.120899)" />
    </g>
    <ellipse
       style="fill:#ee0a0a;fill-opacity:1;stroke-width:1"
       id="path9958"
       cx="26.379501"
       cy="148.5484"
       rx="8.0448132"
       ry="8.4189901" />
    <ellipse
       style="fill:#000000;fill-opacity:1;stroke-width:1"
       id="ellipse10040"
       cx="26.192413"
       cy="169.87651"
       rx="8.0448132"
       ry="8.4189901" />
    <ellipse
       style="fill:#ffffff;fill-opacity:1;stroke:#000000;stroke-width:1;stroke-opacity:1"
       id="ellipse17419"
       cx="26.192413"
       cy="192.32716"
       rx="8.0448132"
       ry="8.4189901" />
  </g>
</svg>
