<?xml version="1.0" encoding="UTF-8" standalone="no"?>
<!-- Created with Inkscape (http://www.inkscape.org/) -->

<svg
   width="297mm"
   height="210mm"
   viewBox="0 0 297 210"
   version="1.1"
   id="svg5"
   inkscape:version="1.2.1 (9c6d41e410, 2022-07-14)"
   sodipodi:docname="logo_ods.svg"
   xmlns:inkscape="http://www.inkscape.org/namespaces/inkscape"
   xmlns:sodipodi="http://sodipodi.sourceforge.net/DTD/sodipodi-0.dtd"
   xmlns="http://www.w3.org/2000/svg"
   xmlns:svg="http://www.w3.org/2000/svg">
  <sodipodi:namedview
     id="namedview7"
     pagecolor="#ffffff"
     bordercolor="#000000"
     borderopacity="0.25"
     inkscape:showpageshadow="2"
     inkscape:pageopacity="0.0"
     inkscape:pagecheckerboard="0"
     inkscape:deskcolor="#d1d1d1"
     inkscape:document-units="mm"
     showgrid="false"
     inkscape:zoom="2.1089996"
     inkscape:cx="371.26607"
     inkscape:cy="604.07788"
     inkscape:window-width="1920"
     inkscape:window-height="1017"
     inkscape:window-x="-8"
     inkscape:window-y="-8"
     inkscape:window-maximized="1"
     inkscape:current-layer="layer1" />
  <defs
     id="defs2" />
  <g
     inkscape:label="Camada 1"
     inkscape:groupmode="layer"
     id="layer1">
    <g
       id="g28154"
       transform="translate(-47.401449,-4.3522655)">
      <g
         aria-label="Libreye "
         transform="matrix(10.672701,0,0,10.672701,-996.72311,-932.61547)"
         id="text113"
         style="font-size:3.175px;font-family:'Dissolve Regular';-inkscape-font-specification:'Dissolve Regular, Normal';white-space:pre;inline-size:19.4791;display:inline;stroke-width:0.264583">
        <path
           d="m 105.35636,92.261239 h -1.7399 v -2.38125 h 0.23812 v 2.143125 h 1.50178 v 0.238125 z"
           id="path863" />
        <path
           d="m 105.83578,92.261239 h -0.23812 v -1.5875 h 0.23812 v 1.5875 z"
           id="path865" />
        <path
           d="m 106.87083,92.258064 q -0.1651,0 -0.31115,-0.06033 -0.14288,-0.0635 -0.25083,-0.17145 -0.10795,-0.10795 -0.17145,-0.250825 -0.0603,-0.14605 -0.0603,-0.31115 v -1.590675 h 0.23812 v 1.590675 q 0,0.1143 0.0413,0.2159 0.0444,0.1016 0.12065,0.1778 0.0762,0.0762 0.1778,0.12065 0.1016,0.04127 0.2159,0.04127 0.11747,0 0.21907,-0.04127 0.1016,-0.04445 0.17463,-0.12065 0.0762,-0.0762 0.11747,-0.1778 0.0444,-0.1016 0.0444,-0.2159 0,-0.117475 -0.0444,-0.219075 -0.0413,-0.1016 -0.11747,-0.174625 -0.073,-0.0762 -0.17463,-0.117475 -0.1016,-0.04445 -0.21907,-0.04445 v -0.238125 q 0.1651,0 0.30797,0.0635 0.14605,0.06032 0.254,0.168275 0.10795,0.10795 0.16828,0.254 0.0635,0.142875 0.0635,0.307975 0,0.1651 -0.0635,0.31115 -0.0603,0.142875 -0.16828,0.250825 -0.10795,0.10795 -0.254,0.17145 -0.14287,0.06033 -0.30797,0.06033 z"
           id="path867" />
        <path
           d="m 108.69011,90.915039 q -0.1143,0 -0.2159,0.04445 -0.1016,0.04127 -0.1778,0.117475 -0.073,0.07303 -0.11748,0.174625 -0.0413,0.1016 -0.0413,0.2159 v 0.7874 h -0.23495 v -0.7874 q 0,-0.161925 0.0603,-0.3048 0.0635,-0.142875 0.17145,-0.250825 0.10795,-0.10795 0.25083,-0.168275 0.14287,-0.0635 0.3048,-0.0635 v 0.23495 z"
           id="path869" />
        <path
           d="m 109.72833,92.264414 q -0.1651,0 -0.31115,-0.06033 -0.14287,-0.0635 -0.25082,-0.17145 -0.10795,-0.10795 -0.17145,-0.250825 -0.0603,-0.14605 -0.0603,-0.31115 0,-0.161925 0.0603,-0.3048 0.0635,-0.14605 0.17145,-0.254 0.10795,-0.10795 0.25082,-0.17145 0.14605,-0.0635 0.31115,-0.0635 0.16193,0 0.3048,0.0635 0.14605,0.0635 0.254,0.17145 0.10795,0.10795 0.17145,0.254 0.0635,0.142875 0.0635,0.3048 v 0.1524 h -0.79375 v -0.238125 h 0.55563 q 0,-0.09525 -0.0444,-0.180975 -0.0413,-0.08572 -0.11748,-0.149225 -0.0762,-0.0635 -0.1778,-0.1016 -0.1016,-0.0381 -0.2159,-0.0381 -0.11747,0 -0.21907,0.04445 -0.1016,0.04127 -0.1778,0.117475 -0.073,0.0762 -0.11748,0.1778 -0.0413,0.1016 -0.0413,0.2159 0,0.117475 0.0413,0.219075 0.0444,0.1016 0.11748,0.1778 0.0762,0.07303 0.1778,0.117475 0.1016,0.04127 0.21907,0.04127 z"
           id="path871" />
        <path
           d="m 111.70954,91.873889 -0.66675,1.18745 h -0.26988 l 0.6604,-1.18745 -0.6604,-1.1938 h 0.27623 l 0.6604,1.1938 z"
           id="path873" />
        <path
           d="m 112.74141,92.264414 q -0.1651,0 -0.31115,-0.06033 -0.14287,-0.0635 -0.25082,-0.17145 -0.10795,-0.10795 -0.17145,-0.250825 -0.0603,-0.14605 -0.0603,-0.31115 0,-0.161925 0.0603,-0.3048 0.0635,-0.14605 0.17145,-0.254 0.10795,-0.10795 0.25082,-0.17145 0.14605,-0.0635 0.31115,-0.0635 0.16193,0 0.3048,0.0635 0.14605,0.0635 0.254,0.17145 0.10795,0.10795 0.17145,0.254 0.0635,0.142875 0.0635,0.3048 v 0.1524 h -0.79375 v -0.238125 h 0.55563 q 0,-0.09525 -0.0444,-0.180975 -0.0413,-0.08572 -0.11748,-0.149225 -0.0762,-0.0635 -0.1778,-0.1016 -0.1016,-0.0381 -0.2159,-0.0381 -0.11747,0 -0.21907,0.04445 -0.1016,0.04127 -0.1778,0.117475 -0.073,0.0762 -0.11748,0.1778 -0.0413,0.1016 -0.0413,0.2159 0,0.117475 0.0413,0.219075 0.0445,0.1016 0.11748,0.1778 0.0762,0.07303 0.1778,0.117475 0.1016,0.04127 0.21907,0.04127 z"
           id="path875" />
      </g>
      <circle
         style="fill:none;fill-opacity:1;stroke:#0c5ba7;stroke-width:2;stroke-dasharray:none;stroke-opacity:1"
         id="circle5472"
         cx="93.505241"
         cy="45.144608"
         r="10.129957"
         inkscape:label="path327" />
      <circle
         style="fill:none;fill-opacity:1;stroke:#5da9f4;stroke-width:2;stroke-dasharray:none;stroke-opacity:1"
         id="path327"
         cx="87.916542"
         cy="37.160698"
         r="12.690368"
         inkscape:label="path327" />
      <circle
         style="fill:#5da9f4;fill-opacity:1;stroke:#0c5ba7;stroke-width:1;stroke-dasharray:none;stroke-opacity:1"
         id="path7704"
         cx="91.285172"
         cy="42.382751"
         r="2.6659067" />
    </g>
    <rect
       style="fill:#000000;fill-opacity:1;stroke:none;stroke-width:1;stroke-dasharray:none;stroke-opacity:1"
       id="rect22000"
       width="156.83871"
       height="52.516129"
       x="21.033159"
       y="67.254295" />
    <g
       id="g28162"
       transform="translate(-47.095842,-2.1166667)">
      <g
         aria-label="Libreye "
         transform="matrix(10.672701,0,0,10.672701,-997.78762,-879.7445)"
         id="text20476"
         style="font-size:3.175px;font-family:'Dissolve Regular';-inkscape-font-specification:'Dissolve Regular, Normal';white-space:pre;inline-size:19.4791;display:inline;fill:#ffffff;stroke-width:0.264583">
        <path
           d="m 105.35636,92.261239 h -1.7399 v -2.38125 h 0.23812 v 2.143125 h 1.50178 v 0.238125 z"
           id="path878" />
        <path
           d="m 105.83578,92.261239 h -0.23812 v -1.5875 h 0.23812 v 1.5875 z"
           id="path880" />
        <path
           d="m 106.87083,92.258064 q -0.1651,0 -0.31115,-0.06033 -0.14288,-0.0635 -0.25083,-0.17145 -0.10795,-0.10795 -0.17145,-0.250825 -0.0603,-0.14605 -0.0603,-0.31115 v -1.590675 h 0.23812 v 1.590675 q 0,0.1143 0.0413,0.2159 0.0444,0.1016 0.12065,0.1778 0.0762,0.0762 0.1778,0.12065 0.1016,0.04127 0.2159,0.04127 0.11747,0 0.21907,-0.04127 0.1016,-0.04445 0.17463,-0.12065 0.0762,-0.0762 0.11747,-0.1778 0.0444,-0.1016 0.0444,-0.2159 0,-0.117475 -0.0444,-0.219075 -0.0413,-0.1016 -0.11747,-0.174625 -0.073,-0.0762 -0.17463,-0.117475 -0.1016,-0.04445 -0.21907,-0.04445 v -0.238125 q 0.1651,0 0.30797,0.0635 0.14605,0.06032 0.254,0.168275 0.10795,0.10795 0.16828,0.254 0.0635,0.142875 0.0635,0.307975 0,0.1651 -0.0635,0.31115 -0.0603,0.142875 -0.16828,0.250825 -0.10795,0.10795 -0.254,0.17145 -0.14287,0.06033 -0.30797,0.06033 z"
           id="path882" />
        <path
           d="m 108.69011,90.915039 q -0.1143,0 -0.2159,0.04445 -0.1016,0.04127 -0.1778,0.117475 -0.073,0.07303 -0.11748,0.174625 -0.0413,0.1016 -0.0413,0.2159 v 0.7874 h -0.23495 v -0.7874 q 0,-0.161925 0.0603,-0.3048 0.0635,-0.142875 0.17145,-0.250825 0.10795,-0.10795 0.25083,-0.168275 0.14287,-0.0635 0.3048,-0.0635 v 0.23495 z"
           id="path884" />
        <path
           d="m 109.72833,92.264414 q -0.1651,0 -0.31115,-0.06033 -0.14287,-0.0635 -0.25082,-0.17145 -0.10795,-0.10795 -0.17145,-0.250825 -0.0603,-0.14605 -0.0603,-0.31115 0,-0.161925 0.0603,-0.3048 0.0635,-0.14605 0.17145,-0.254 0.10795,-0.10795 0.25082,-0.17145 0.14605,-0.0635 0.31115,-0.0635 0.16193,0 0.3048,0.0635 0.14605,0.0635 0.254,0.17145 0.10795,0.10795 0.17145,0.254 0.0635,0.142875 0.0635,0.3048 v 0.1524 h -0.79375 v -0.238125 h 0.55563 q 0,-0.09525 -0.0444,-0.180975 -0.0413,-0.08572 -0.11748,-0.149225 -0.0762,-0.0635 -0.1778,-0.1016 -0.1016,-0.0381 -0.2159,-0.0381 -0.11747,0 -0.21907,0.04445 -0.1016,0.04127 -0.1778,0.117475 -0.073,0.0762 -0.11748,0.1778 -0.0413,0.1016 -0.0413,0.2159 0,0.117475 0.0413,0.219075 0.0444,0.1016 0.11748,0.1778 0.0762,0.07303 0.1778,0.117475 0.1016,0.04127 0.21907,0.04127 z"
           id="path886" />
        <path
           d="m 111.70954,91.873889 -0.66675,1.18745 h -0.26988 l 0.6604,-1.18745 -0.6604,-1.1938 h 0.27623 l 0.6604,1.1938 z"
           id="path888" />
        <path
           d="m 112.74141,92.264414 q -0.1651,0 -0.31115,-0.06033 -0.14287,-0.0635 -0.25082,-0.17145 -0.10795,-0.10795 -0.17145,-0.250825 -0.0603,-0.14605 -0.0603,-0.31115 0,-0.161925 0.0603,-0.3048 0.0635,-0.14605 0.17145,-0.254 0.10795,-0.10795 0.25082,-0.17145 0.14605,-0.0635 0.31115,-0.0635 0.16193,0 0.3048,0.0635 0.14605,0.0635 0.254,0.17145 0.10795,0.10795 0.17145,0.254 0.0635,0.142875 0.0635,0.3048 v 0.1524 h -0.79375 v -0.238125 h 0.55563 q 0,-0.09525 -0.0444,-0.180975 -0.0413,-0.08572 -0.11748,-0.149225 -0.0762,-0.0635 -0.1778,-0.1016 -0.1016,-0.0381 -0.2159,-0.0381 -0.11747,0 -0.21907,0.04445 -0.1016,0.04127 -0.1778,0.117475 -0.073,0.0762 -0.11748,0.1778 -0.0413,0.1016 -0.0413,0.2159 0,0.117475 0.0413,0.219075 0.0445,0.1016 0.11748,0.1778 0.0762,0.07303 0.1778,0.117475 0.1016,0.04127 0.21907,0.04127 z"
           id="path890" />
      </g>
      <circle
         style="fill:none;fill-opacity:1;stroke:#0c5ba7;stroke-width:2;stroke-dasharray:none;stroke-opacity:1"
         id="circle20478"
         cx="92.440727"
         cy="98.015572"
         r="10.129957"
         inkscape:label="path327" />
      <circle
         style="fill:none;fill-opacity:1;stroke:#5da9f4;stroke-width:2;stroke-dasharray:none;stroke-opacity:1"
         id="circle20480"
         cx="86.852028"
         cy="90.031662"
         r="12.690368"
         inkscape:label="path327" />
      <circle
         style="fill:#5da9f4;fill-opacity:1;stroke:#0c5ba7;stroke-width:1;stroke-dasharray:none;stroke-opacity:1"
         id="circle20482"
         cx="90.220657"
         cy="95.253716"
         r="2.6659067" />
    </g>
    <rect
       style="fill:#5da9f4;fill-opacity:1;stroke:none;stroke-width:1;stroke-dasharray:none;stroke-opacity:1"
       id="rect24301"
       width="156.83871"
       height="52.516129"
       x="20.558697"
       y="131.48216" />
    <g
       id="g28146"
       transform="translate(-46.566675,7.7734066)">
      <g
         aria-label="Libreye "
         transform="matrix(10.672701,0,0,10.672701,-997.43278,-825.80902)"
         id="text20488"
         style="font-size:3.175px;font-family:'Dissolve Regular';-inkscape-font-specification:'Dissolve Regular, Normal';white-space:pre;inline-size:19.4791;display:inline;stroke-width:0.264583">
        <path
           d="m 105.35636,92.261239 h -1.7399 v -2.38125 h 0.23812 v 2.143125 h 1.50178 v 0.238125 z"
           id="path893" />
        <path
           d="m 105.83578,92.261239 h -0.23812 v -1.5875 h 0.23812 v 1.5875 z"
           id="path895" />
        <path
           d="m 106.87083,92.258064 q -0.1651,0 -0.31115,-0.06033 -0.14288,-0.0635 -0.25083,-0.17145 -0.10795,-0.10795 -0.17145,-0.250825 -0.0603,-0.14605 -0.0603,-0.31115 v -1.590675 h 0.23812 v 1.590675 q 0,0.1143 0.0413,0.2159 0.0444,0.1016 0.12065,0.1778 0.0762,0.0762 0.1778,0.12065 0.1016,0.04127 0.2159,0.04127 0.11747,0 0.21907,-0.04127 0.1016,-0.04445 0.17463,-0.12065 0.0762,-0.0762 0.11747,-0.1778 0.0444,-0.1016 0.0444,-0.2159 0,-0.117475 -0.0444,-0.219075 -0.0413,-0.1016 -0.11747,-0.174625 -0.073,-0.0762 -0.17463,-0.117475 -0.1016,-0.04445 -0.21907,-0.04445 v -0.238125 q 0.1651,0 0.30797,0.0635 0.14605,0.06032 0.254,0.168275 0.10795,0.10795 0.16828,0.254 0.0635,0.142875 0.0635,0.307975 0,0.1651 -0.0635,0.31115 -0.0603,0.142875 -0.16828,0.250825 -0.10795,0.10795 -0.254,0.17145 -0.14287,0.06033 -0.30797,0.06033 z"
           id="path897" />
        <path
           d="m 108.69011,90.915039 q -0.1143,0 -0.2159,0.04445 -0.1016,0.04127 -0.1778,0.117475 -0.073,0.07303 -0.11748,0.174625 -0.0413,0.1016 -0.0413,0.2159 v 0.7874 h -0.23495 v -0.7874 q 0,-0.161925 0.0603,-0.3048 0.0635,-0.142875 0.17145,-0.250825 0.10795,-0.10795 0.25083,-0.168275 0.14287,-0.0635 0.3048,-0.0635 v 0.23495 z"
           id="path899" />
        <path
           d="m 109.72833,92.264414 q -0.1651,0 -0.31115,-0.06033 -0.14287,-0.0635 -0.25082,-0.17145 -0.10795,-0.10795 -0.17145,-0.250825 -0.0603,-0.14605 -0.0603,-0.31115 0,-0.161925 0.0603,-0.3048 0.0635,-0.14605 0.17145,-0.254 0.10795,-0.10795 0.25082,-0.17145 0.14605,-0.0635 0.31115,-0.0635 0.16193,0 0.3048,0.0635 0.14605,0.0635 0.254,0.17145 0.10795,0.10795 0.17145,0.254 0.0635,0.142875 0.0635,0.3048 v 0.1524 h -0.79375 v -0.238125 h 0.55563 q 0,-0.09525 -0.0444,-0.180975 -0.0413,-0.08572 -0.11748,-0.149225 -0.0762,-0.0635 -0.1778,-0.1016 -0.1016,-0.0381 -0.2159,-0.0381 -0.11747,0 -0.21907,0.04445 -0.1016,0.04127 -0.1778,0.117475 -0.073,0.0762 -0.11748,0.1778 -0.0413,0.1016 -0.0413,0.2159 0,0.117475 0.0413,0.219075 0.0444,0.1016 0.11748,0.1778 0.0762,0.07303 0.1778,0.117475 0.1016,0.04127 0.21907,0.04127 z"
           id="path901" />
        <path
           d="m 111.70954,91.873889 -0.66675,1.18745 h -0.26988 l 0.6604,-1.18745 -0.6604,-1.1938 h 0.27623 l 0.6604,1.1938 z"
           id="path903" />
        <path
           d="m 112.74141,92.264414 q -0.1651,0 -0.31115,-0.06033 -0.14287,-0.0635 -0.25082,-0.17145 -0.10795,-0.10795 -0.17145,-0.250825 -0.0603,-0.14605 -0.0603,-0.31115 0,-0.161925 0.0603,-0.3048 0.0635,-0.14605 0.17145,-0.254 0.10795,-0.10795 0.25082,-0.17145 0.14605,-0.0635 0.31115,-0.0635 0.16193,0 0.3048,0.0635 0.14605,0.0635 0.254,0.17145 0.10795,0.10795 0.17145,0.254 0.0635,0.142875 0.0635,0.3048 v 0.1524 h -0.79375 v -0.238125 h 0.55563 q 0,-0.09525 -0.0444,-0.180975 -0.0413,-0.08572 -0.11748,-0.149225 -0.0762,-0.0635 -0.1778,-0.1016 -0.1016,-0.0381 -0.2159,-0.0381 -0.11747,0 -0.21907,0.04445 -0.1016,0.04127 -0.1778,0.117475 -0.073,0.0762 -0.11748,0.1778 -0.0413,0.1016 -0.0413,0.2159 0,0.117475 0.0413,0.219075 0.0445,0.1016 0.11748,0.1778 0.0762,0.07303 0.1778,0.117475 0.1016,0.04127 0.21907,0.04127 z"
           id="path905" />
      </g>
      <circle
         style="fill:none;fill-opacity:1;stroke:#0c5ba7;stroke-width:2;stroke-dasharray:none;stroke-opacity:1"
         id="circle20490"
         cx="92.795563"
         cy="151.95105"
         r="10.129957"
         inkscape:label="path327" />
      <circle
         style="fill:none;fill-opacity:1;stroke:#ffffff;stroke-width:2;stroke-dasharray:none;stroke-opacity:1"
         id="circle20492"
         cx="87.206863"
         cy="143.96715"
         r="12.690368"
         inkscape:label="path327" />
      <circle
         style="fill:#ffffff;fill-opacity:1;stroke:#0c5ba7;stroke-width:1;stroke-dasharray:none;stroke-opacity:1"
         id="circle20494"
         cx="90.575493"
         cy="149.18919"
         r="2.6659067" />
    </g>
    <ellipse
       style="fill:#5da9f4;fill-opacity:1;stroke:#ffffff;stroke-width:0.764789;stroke-dasharray:none;stroke-opacity:1"
       id="path28282"
       cx="216.65979"
       cy="66.992661"
       rx="13.792142"
       ry="13.415777" />
    <ellipse
       style="fill:#0c5ba7;fill-opacity:1;stroke:#ffffff;stroke-width:0.764789;stroke-dasharray:none;stroke-opacity:1"
       id="ellipse28422"
       cx="217.16161"
       cy="97.352631"
       rx="13.792142"
       ry="13.415777" />
    <ellipse
       style="fill:#000000;fill-opacity:1;stroke:#ffffff;stroke-width:0.764789;stroke-dasharray:none;stroke-opacity:1"
       id="ellipse1607"
       cx="217.66342"
       cy="128.46533"
       rx="13.792142"
       ry="13.415777" />
    <ellipse
       style="fill:#ffffff;fill-opacity:1;stroke:#000000;stroke-width:0.764789;stroke-dasharray:none;stroke-opacity:1"
       id="ellipse1609"
       cx="216.65979"
       cy="161.08348"
       rx="13.792142"
       ry="13.415777" />
  </g>
</svg>
